Coordinates
version=1
nRows=22
nColumns=32
inDegrees=yes

Units are S.I. units (second, meters, Newtons, ...)
If the header above contains a line with 'inDegrees', this indicates whether rotational values are in degrees (yes) or radians (no).

endheader
time	pelvis_tilt	pelvis_list	pelvis_rotation	pelvis_tx	pelvis_ty	pelvis_tz	hip_flexion_r	hip_adduction_r	hip_rotation_r	knee_angle_r	ankle_angle_r	subtalar_angle_r	mtp_angle_r	hip_flexion_l	hip_adduction_l	hip_rotation_l	knee_angle_l	ankle_angle_l	subtalar_angle_l	mtp_angle_l	lumbar_extension	lumbar_bending	lumbar_rotation	arm_flex_r	arm_add_r	arm_rot_r	elbow_flex_r	arm_flex_l	arm_add_l	arm_rot_l	elbow_flex_l
      0.01000000	     -5.86442840	     -8.39571595	     -2.17568301	     -2.36041785	      0.83075223	     -0.16269484	     34.30111438	     15.03906249	     -0.32419259	    -48.99312156	     19.76000434	    -23.13191230	      0.00000000	     26.62656880	    -12.87820608	     -5.80915266	    -76.69730192	     20.95047943	    -13.56513426	      0.00000000	    -17.55993765	     14.95657314	     -6.79239481	      0.00000000	      0.00000000	      0.00000000	      0.00000000	      0.00000000	      0.00000000	      0.00000000	      0.00000000
      0.02000000	     -3.18767827	     -9.31888626	     -1.04596716	     -2.35631804	      0.83119993	     -0.16147779	     31.51927205	     15.93850831	     -0.82653511	    -49.29764980	     19.49998527	    -24.49989074	      0.00000000	     26.23254896	    -14.23282681	     -5.27577378	    -79.02507539	     21.01087928	    -13.55244587	      0.00000000	    -20.70155088	     15.45984207	     -7.30273588	      0.00000000	      0.00000000	      0.00000000	      0.00000000	      0.00000000	      0.00000000	      0.00000000	      0.00000000
      0.03000000	     -2.92865722	     -9.30631917	     -1.02333415	     -2.35181758	      0.83160892	     -0.16032927	     30.90925882	     15.95842077	     -0.96891220	    -49.31619171	     19.97890015	    -24.49702215	      0.00000000	     27.49095664	    -14.45129123	     -5.13662838	    -80.48707940	     23.15252297	    -11.70078113	      0.00000000	    -21.11399114	     15.00264876	     -7.34201280	      0.00000000	      0.00000000	      0.00000000	      0.00000000	      0.00000000	      0.00000000	      0.00000000	      0.00000000
      0.04000000	     -2.62749878	     -9.25207754	     -0.81691771	     -2.34760055	      0.83190350	     -0.16008813	     30.32482293	     16.03827256	     -0.73572349	    -49.44180933	     20.31067813	    -24.66947901	      0.00000000	     29.05959422	    -14.47506324	     -4.86122642	    -81.83892850	     22.89721272	    -11.15983816	      0.00000000	    -21.59454518	     14.71950450	     -7.18836227	      0.00000000	      0.00000000	      0.00000000	      0.00000000	      0.00000000	      0.00000000	      0.00000000	      0.00000000
      0.05000000	     -2.81509272	     -9.40751766	     -0.74003205	     -2.34366014	      0.83171639	     -0.15991760	     30.31392889	     15.91156469	     -1.45145917	    -49.52178729	     20.61642907	    -24.20589995	      0.00000000	     30.91777337	    -14.49486523	     -3.76631884	    -82.40650199	     23.58672643	    -11.63860082	      0.00000000	    -21.55133575	     14.68875352	     -7.28043989	      0.00000000	      0.00000000	      0.00000000	      0.00000000	      0.00000000	      0.00000000	      0.00000000	      0.00000000
      0.06000000	     -2.52984779	     -9.29668465	     -0.68660289	     -2.33925411	      0.83227429	     -0.15980858	     29.62278445	     15.84844256	     -1.31737148	    -49.48401506	     20.60849595	    -24.12126052	      0.00000000	     32.30367227	    -14.53355451	     -3.71092677	    -83.30845907	     23.75532151	    -11.66866477	      0.00000000	    -21.99202765	     14.28729837	     -7.21383675	      0.00000000	      0.00000000	      0.00000000	      0.00000000	      0.00000000	      0.00000000	      0.00000000	      0.00000000
      0.07000000	     -2.54588955	     -9.46321176	     -0.62313530	     -2.33487058	      0.83221823	     -0.16016862	     29.28382146	     15.93535074	     -1.48758012	    -49.42958513	     21.05607454	    -24.09254298	      0.00000000	     34.03682415	    -14.61977964	     -3.18910672	    -83.90530803	     24.19477759	    -11.29220664	      0.00000000	    -22.02548244	     14.27284771	     -6.55874834	      0.00000000	      0.00000000	      0.00000000	      0.00000000	      0.00000000	      0.00000000	      0.00000000	      0.00000000
      0.08000000	     -2.71096153	     -9.48044954	     -0.49621897	     -2.33111203	      0.83206187	     -0.16043637	     29.30533249	     15.75014442	     -1.93526737	    -49.63433858	     21.49354200	    -23.29359429	      0.00000000	     35.96827973	    -14.41846953	     -2.29517096	    -84.12833585	     24.00732691	    -11.22821994	      0.00000000	    -21.98102089	     14.15608919	     -6.72327558	      0.00000000	      0.00000000	      0.00000000	      0.00000000	      0.00000000	      0.00000000	      0.00000000	      0.00000000
      0.09000000	     -1.48095186	     -9.08336081	     -0.86824822	     -2.32711206	      0.83277954	     -0.16091451	     27.76109006	     15.31666912	     -1.78605514	    -50.06546168	     22.56619055	    -22.35411316	      0.00000000	     36.05622653	    -14.29044816	     -2.82849581	    -84.30472160	     24.03449999	    -11.18657722	      0.00000000	    -23.51590662	     13.29479129	     -6.03049124	      0.00000000	      0.00000000	      0.00000000	      0.00000000	      0.00000000	      0.00000000	      0.00000000	      0.00000000
      0.10000000	     -1.26428861	     -9.08602895	     -0.88613675	     -2.32245961	      0.83316969	     -0.16132034	     27.15120590	     15.40297479	     -1.53313369	    -50.05811586	     22.88504180	    -22.42932337	      0.00000000	     37.14630711	    -14.28043413	     -2.31024810	    -84.05654132	     24.27162619	    -11.32816782	      0.00000000	    -23.73929110	     13.01445705	     -5.91440284	      0.00000000	      0.00000000	      0.00000000	      0.00000000	      0.00000000	      0.00000000	      0.00000000	      0.00000000
      0.11000000	     -1.10631732	     -9.04431252	     -0.99339967	     -2.31812348	      0.83359783	     -0.16183817	     26.60058810	     15.34724459	     -1.43999244	    -49.99619326	     23.16026586	    -22.48815015	      0.00000000	     38.17149236	    -13.97950941	     -1.55094717	    -83.55740243	     24.45599567	    -11.31137762	      0.00000000	    -23.95422637	     12.71597576	     -5.45025670	      0.00000000	      0.00000000	      0.00000000	      0.00000000	      0.00000000	      0.00000000	      0.00000000	      0.00000000
      0.12000000	     -3.07325020	     -8.39600611	     -1.74913524	     -2.31440206	      0.83310743	     -0.16298483	     28.21818805	     14.60213334	     -1.19813445	    -49.86497867	     23.65014888	    -21.62168342	      0.00000000	     41.40329650	    -13.45141091	     -2.07722339	    -82.59755226	     23.65823504	    -12.01405910	      0.00000000	    -21.93251563	     11.95499282	     -5.23708745	      0.00000000	      0.00000000	      0.00000000	      0.00000000	      0.00000000	      0.00000000	      0.00000000	      0.00000000
      0.13000000	     -0.81052264	     -9.03136296	     -1.23613679	     -2.30954322	      0.83442135	     -0.16284845	     25.54170407	     15.15659788	     -1.62628986	    -49.94586369	     24.23838422	    -21.82153857	      0.00000000	     40.22123761	    -13.96243058	     -1.03724562	    -81.94521448	     24.31446348	    -11.14483653	      0.00000000	    -24.34540519	     12.06363037	     -5.41970333	      0.00000000	      0.00000000	      0.00000000	      0.00000000	      0.00000000	      0.00000000	      0.00000000	      0.00000000
      0.14000000	     -0.63107209	     -8.82320375	     -1.39571032	     -2.30524997	      0.83504306	     -0.16334362	     24.77888107	     15.15885968	     -0.69974571	    -49.63542030	     24.89473022	    -21.79677953	      0.00000000	     40.98872883	    -13.76593029	     -0.91406434	    -80.70030743	     24.33160429	    -11.09023686	      0.00000000	    -24.49916923	     11.44230781	     -5.32237223	      0.00000000	      0.00000000	      0.00000000	      0.00000000	      0.00000000	      0.00000000	      0.00000000	      0.00000000
      0.15000000	     -0.58017421	     -8.55372964	     -1.30888323	     -2.30044441	      0.83531762	     -0.16507060	     24.41434058	     14.55359824	     -1.15962257	    -49.75998941	     25.12581695	    -21.47446637	      0.00000000	     41.79849359	    -13.23168862	     -0.35391527	    -79.26188733	     24.07596871	    -10.70946289	      0.00000000	    -24.36505221	     10.99143090	     -6.15570328	      0.00000000	      0.00000000	      0.00000000	      0.00000000	      0.00000000	      0.00000000	      0.00000000	      0.00000000
      0.16000000	     -0.40431868	     -8.65505737	     -1.80805122	     -2.29614725	      0.83648376	     -0.16473853	     23.56154748	     14.95411720	     -0.45550560	    -49.28017853	     25.53445126	    -21.30667369	      0.00000000	     42.16742564	    -13.53266010	     -0.19321675	    -77.48465900	     24.01324980	    -10.67558565	      0.00000000	    -24.60692185	     10.56236881	     -5.74218225	      0.00000000	      0.00000000	      0.00000000	      0.00000000	      0.00000000	      0.00000000	      0.00000000	      0.00000000
      0.17000000	     -0.30949286	     -8.76652252	     -2.01668547	     -2.29161047	      0.83723417	     -0.16602265	     23.04083051	     15.02611853	     -0.17076228	    -49.28536425	     25.29410528	    -21.01975096	      0.00000000	     42.68042836	    -13.63875453	      0.04297691	    -75.60815937	     23.97937744	    -10.71992238	      0.00000000	    -24.68118555	     10.43522132	     -5.89833708	      0.00000000	      0.00000000	      0.00000000	      0.00000000	      0.00000000	      0.00000000	      0.00000000	      0.00000000
      0.18000000	     -0.24588592	     -8.62567798	     -2.16820006	     -2.28675553	      0.83754763	     -0.16685629	     22.49087758	     14.92243746	      0.14735589	    -49.22899044	     25.57240499	    -20.84191744	      0.00000000	     43.04893944	    -13.57112670	      0.20997698	    -73.43851934	     23.51032387	    -11.16515351	      0.00000000	    -24.65709223	      9.99181953	     -6.72825814	      0.00000000	      0.00000000	      0.00000000	      0.00000000	      0.00000000	      0.00000000	      0.00000000	      0.00000000
      0.19000000	     -0.22031412	     -8.77193852	     -2.51659494	     -2.28249846	      0.83828634	     -0.16760815	     21.98227878	     15.00931557	      0.18440620	    -48.96216132	     25.65874318	    -20.70722732	      0.00000000	     43.34111054	    -13.82349220	      0.39728187	    -71.10558365	     23.39901201	    -11.24654167	      0.00000000	    -24.53343484	      9.75437347	     -6.82871643	      0.00000000	      0.00000000	      0.00000000	      0.00000000	      0.00000000	      0.00000000	      0.00000000	      0.00000000
      0.20000000	      0.07757984	     -8.70437931	     -3.07694119	     -2.27792235	      0.83936502	     -0.16828469	     21.24777161	     14.96593376	      0.67553566	    -48.92752372	     25.88274979	    -20.24894756	      0.00000000	     43.24541019	    -14.10075977	      0.10310502	    -68.70331522	     22.42799592	    -11.70595046	      0.00000000	    -24.90465398	      9.28832259	     -6.95332208	      0.00000000	      0.00000000	      0.00000000	      0.00000000	      0.00000000	      0.00000000	      0.00000000	      0.00000000
      0.21000000	      0.12327348	     -8.63723501	     -3.39542103	     -2.27314288	      0.83964766	     -0.16902160	     20.50591950	     15.00355508	      1.28643917	    -48.59550199	     26.31798587	    -20.37722572	      0.00000000	     43.32594114	    -14.12606177	      0.25879926	    -66.22170720	     22.07488754	    -11.81435809	      0.00000000	    -24.75193327	      8.99977571	     -7.38156430	      0.00000000	      0.00000000	      0.00000000	      0.00000000	      0.00000000	      0.00000000	      0.00000000	      0.00000000
      0.22000000	      0.25155644	     -8.64358685	     -3.93489862	     -2.26832085	      0.84013556	     -0.17001089	     19.96221259	     14.95941781	      1.67822868	    -48.59180423	     26.33454959	    -20.22506998	      0.00000000	     43.15767248	    -14.42462582	      0.08094747	    -63.63174288	     21.29649269	    -11.87225670	      0.00000000	    -24.91770309	      8.57501526	     -7.27314285	      0.00000000	      0.00000000	      0.00000000	      0.00000000	      0.00000000	      0.00000000	      0.00000000	      0.00000000
